<svg width="29" height="28" viewBox="0 0 29 28" fill="none" xmlns="http://www.w3.org/2000/svg">
<path d="M7.50002 22.1663H11V16.333C11 16.0025 11.112 15.7256 11.336 15.5023C11.56 15.2791 11.8369 15.1671 12.1667 15.1663H16.8334C17.1639 15.1663 17.4412 15.2783 17.6652 15.5023C17.8892 15.7263 18.0008 16.0032 18 16.333V22.1663H21.5V11.6663L14.5 6.41634L7.50002 11.6663V22.1663ZM5.16669 22.1663V11.6663C5.16669 11.2969 5.24952 10.9469 5.41519 10.6163C5.58085 10.2858 5.80913 10.0136 6.10002 9.79967L13.1 4.54967C13.5084 4.23856 13.975 4.08301 14.5 4.08301C15.025 4.08301 15.4917 4.23856 15.9 4.54967L22.9 9.79967C23.1917 10.0136 23.4204 10.2858 23.586 10.6163C23.7517 10.9469 23.8341 11.2969 23.8334 11.6663V22.1663C23.8334 22.808 23.6047 23.3575 23.1474 23.8148C22.69 24.2722 22.1409 24.5005 21.5 24.4997H16.8334C16.5028 24.4997 16.2259 24.3877 16.0027 24.1637C15.7795 23.9397 15.6675 23.6628 15.6667 23.333V17.4997H13.3334V23.333C13.3334 23.6636 13.2214 23.9408 12.9974 24.1648C12.7734 24.3888 12.4965 24.5005 12.1667 24.4997H7.50002C6.85835 24.4997 6.30924 24.2714 5.85269 23.8148C5.39613 23.3583 5.16746 22.8088 5.16669 22.1663Z" fill="black"/>
</svg>
