<svg width="29" height="28" viewBox="0 0 29 28" fill="none" xmlns="http://www.w3.org/2000/svg">
<path d="M14.5 3.49954C12.3341 3.49954 10.2568 4.35995 8.72529 5.8915C7.19375 7.42305 6.33333 9.50027 6.33333 11.6662C6.33333 15.0052 8.41233 18.2264 10.6943 20.7219C11.8612 21.9931 13.1343 23.1625 14.5 24.2172C14.7038 24.0609 14.9429 23.8703 15.2175 23.6455C16.3139 22.7452 17.3459 21.769 18.3057 20.7242C20.5877 18.2264 22.6667 15.0064 22.6667 11.6662C22.6667 9.50027 21.8063 7.42305 20.2747 5.8915C18.7432 4.35995 16.6659 3.49954 14.5 3.49954ZM14.5 27.0825L13.8385 26.6275L13.835 26.6252L13.828 26.6194L13.8047 26.603L13.7172 26.5412L13.4022 26.3114C11.806 25.1118 10.3232 23.7684 8.97233 22.298C6.58767 19.687 4 15.9082 4 11.665C4 8.88026 5.10625 6.20955 7.07538 4.24042C9.04451 2.27129 11.7152 1.16504 14.5 1.16504C17.2848 1.16504 19.9555 2.27129 21.9246 4.24042C23.8938 6.20955 25 8.88026 25 11.665C25 15.9082 22.4123 19.6882 20.0277 22.2957C18.6772 23.766 17.1948 25.1094 15.599 26.309C15.4661 26.4083 15.3319 26.5059 15.1965 26.6019L15.172 26.6182L15.165 26.624L15.1627 26.6252L14.5 27.0825ZM14.5 9.33287C13.8812 9.33287 13.2877 9.5787 12.8501 10.0163C12.4125 10.4539 12.1667 11.0474 12.1667 11.6662C12.1667 12.285 12.4125 12.8785 12.8501 13.3161C13.2877 13.7537 13.8812 13.9995 14.5 13.9995C15.1188 13.9995 15.7123 13.7537 16.1499 13.3161C16.5875 12.8785 16.8333 12.285 16.8333 11.6662C16.8333 11.0474 16.5875 10.4539 16.1499 10.0163C15.7123 9.5787 15.1188 9.33287 14.5 9.33287ZM9.83333 11.6662C9.83333 10.4285 10.325 9.24154 11.2002 8.36637C12.0753 7.4912 13.2623 6.99954 14.5 6.99954C15.7377 6.99954 16.9247 7.4912 17.7998 8.36637C18.675 9.24154 19.1667 10.4285 19.1667 11.6662C19.1667 12.9039 18.675 14.0909 17.7998 14.966C16.9247 15.8412 15.7377 16.3329 14.5 16.3329C13.2623 16.3329 12.0753 15.8412 11.2002 14.966C10.325 14.0909 9.83333 12.9039 9.83333 11.6662Z" fill="black"/>
</svg>
