<svg width="29" height="28" viewBox="0 0 29 28" fill="none" xmlns="http://www.w3.org/2000/svg">
<path d="M14.5 14.0003C13.2167 14.0003 12.1181 13.5434 11.2042 12.6295C10.2903 11.7156 9.83335 10.617 9.83335 9.33366C9.83335 8.05033 10.2903 6.95171 11.2042 6.03783C12.1181 5.12394 13.2167 4.66699 14.5 4.66699C15.7834 4.66699 16.882 5.12394 17.7959 6.03783C18.7097 6.95171 19.1667 8.05033 19.1667 9.33366C19.1667 10.617 18.7097 11.7156 17.7959 12.6295C16.882 13.5434 15.7834 14.0003 14.5 14.0003ZM5.16669 21.0003V20.067C5.16669 19.4059 5.33702 18.7984 5.67769 18.2447C6.01835 17.6909 6.47024 17.2678 7.03335 16.9753C8.23891 16.3725 9.46391 15.9207 10.7084 15.6197C11.9528 15.3187 13.2167 15.1678 14.5 15.167C15.7834 15.1662 17.0472 15.3171 18.2917 15.6197C19.5361 15.9222 20.7611 16.3741 21.9667 16.9753C22.5306 17.267 22.9829 17.6901 23.3235 18.2447C23.6642 18.7992 23.8341 19.4067 23.8334 20.067V21.0003C23.8334 21.642 23.6051 22.1915 23.1485 22.6488C22.692 23.1062 22.1425 23.3344 21.5 23.3337H7.50002C6.85835 23.3337 6.30924 23.1054 5.85269 22.6488C5.39613 22.1923 5.16746 21.6428 5.16669 21.0003ZM7.50002 21.0003H21.5V20.067C21.5 19.8531 21.4467 19.6587 21.3402 19.4837C21.2336 19.3087 21.0925 19.1725 20.9167 19.0753C19.8667 18.5503 18.807 18.1568 17.7375 17.8947C16.6681 17.6325 15.5889 17.5011 14.5 17.5003C13.4111 17.4995 12.332 17.631 11.2625 17.8947C10.1931 18.1583 9.13335 18.5519 8.08335 19.0753C7.90835 19.1725 7.76719 19.3087 7.65985 19.4837C7.55252 19.6587 7.49924 19.8531 7.50002 20.067V21.0003ZM14.5 11.667C15.1417 11.667 15.6912 11.4387 16.1485 10.9822C16.6059 10.5256 16.8341 9.9761 16.8334 9.33366C16.8326 8.69121 16.6043 8.1421 16.1485 7.68633C15.6927 7.23055 15.1432 7.00188 14.5 7.00033C13.8568 6.99877 13.3077 7.22744 12.8527 7.68633C12.3977 8.14521 12.169 8.69433 12.1667 9.33366C12.1644 9.97299 12.393 10.5225 12.8527 10.9822C13.3124 11.4418 13.8615 11.6701 14.5 11.667Z" fill="#C1C1C1"/>
</svg>
