<svg width="29" height="28" viewBox="0 0 29 28" fill="none" xmlns="http://www.w3.org/2000/svg">
<path d="M14.5 14.0003C13.2166 14.0003 12.118 13.5434 11.2041 12.6295C10.2902 11.7156 9.83329 10.617 9.83329 9.33366C9.83329 8.05033 10.2902 6.95171 11.2041 6.03783C12.118 5.12394 13.2166 4.66699 14.5 4.66699C15.7833 4.66699 16.8819 5.12394 17.7958 6.03783C18.7097 6.95171 19.1666 8.05033 19.1666 9.33366C19.1666 10.617 18.7097 11.7156 17.7958 12.6295C16.8819 13.5434 15.7833 14.0003 14.5 14.0003ZM5.16663 21.0003V20.067C5.16663 19.4059 5.33696 18.7984 5.67763 18.2447C6.01829 17.6909 6.47018 17.2678 7.03329 16.9753C8.23885 16.3725 9.46385 15.9207 10.7083 15.6197C11.9527 15.3187 13.2166 15.1678 14.5 15.167C15.7833 15.1662 17.0472 15.3171 18.2916 15.6197C19.5361 15.9222 20.7611 16.3741 21.9666 16.9753C22.5305 17.267 22.9828 17.6901 23.3235 18.2447C23.6641 18.7992 23.8341 19.4067 23.8333 20.067V21.0003C23.8333 21.642 23.605 22.1915 23.1485 22.6488C22.6919 23.1062 22.1424 23.3344 21.5 23.3337H7.49996C6.85829 23.3337 6.30918 23.1054 5.85263 22.6488C5.39607 22.1923 5.1674 21.6428 5.16663 21.0003ZM7.49996 21.0003H21.5V20.067C21.5 19.8531 21.4467 19.6587 21.3401 19.4837C21.2336 19.3087 21.0924 19.1725 20.9166 19.0753C19.8666 18.5503 18.8069 18.1568 17.7375 17.8947C16.668 17.6325 15.5888 17.5011 14.5 17.5003C13.4111 17.4995 12.3319 17.631 11.2625 17.8947C10.193 18.1583 9.13329 18.5519 8.08329 19.0753C7.90829 19.1725 7.76713 19.3087 7.65979 19.4837C7.55246 19.6587 7.49918 19.8531 7.49996 20.067V21.0003ZM14.5 11.667C15.1416 11.667 15.6911 11.4387 16.1485 10.9822C16.6058 10.5256 16.8341 9.9761 16.8333 9.33366C16.8325 8.69121 16.6042 8.1421 16.1485 7.68633C15.6927 7.23055 15.1432 7.00188 14.5 7.00033C13.8567 6.99877 13.3076 7.22744 12.8526 7.68633C12.3976 8.14521 12.169 8.69433 12.1666 9.33366C12.1643 9.97299 12.393 10.5225 12.8526 10.9822C13.3123 11.4418 13.8614 11.6701 14.5 11.667Z" fill="#111111"/>
</svg>
